<svg width="100" height="100" viewBox="0 0 100 100" xmlns="http://www.w3.org/2000/svg">
  <!-- Background (transparent for flexibility) -->
  <rect width="100%" height="100%" fill="none" />

  <!-- Modernized Heart Shape (Deep, magical blue) with more defined curves -->
  <path 
    d="M 50 20 C 30 0 0 25 0 50 C 0 75 40 95 50 90 C 60 95 100 75 100 50 C 100 25 70 0 50 20 Z" 
    fill="#34568B" 
    stroke="#2A456E" 
    stroke-width="3"
  />

  <!-- Refined Dagger (Silver/Grey), positioned and rotated to intersect the heart -->
  <g transform="translate(0, -5) rotate(-45 50 50)"> 
    <!-- Blade: Wider at base, tapering to a sharp point, with a defined edge -->
    <path 
      d="M 50 20 L 42 55 L 50 60 L 58 55 L 50 20 Z" 
      fill="#C0C0C0" 
      stroke="#808080" 
      stroke-width="2"
    />
    <!-- Guard: Straight, distinct horizontal bar -->
    <rect x="38" y="58" width="24" height="7" fill="#808080" />
    <!-- Hilt/Grip: Curved, ergonomic shape similar to reference -->
    <path 
      d="M 47 65 C 45 70 45 78 50 85 C 55 78 55 70 53 65 Z" 
      fill="#C0C0C0" 
      stroke="#808080" 
      stroke-width="1"
    />
    <!-- Pommel: Rounded knob at the end of the hilt -->
    <circle cx="50" cy="88" r="4" fill="#808080" />
  </g>
</svg>